<?xml version="1.0" standalone="no"?>
<!DOCTYPE svg PUBLIC "-//W3C//DTD SVG 20010904//EN"
 "http://www.w3.org/TR/2001/REC-SVG-20010904/DTD/svg10.dtd">
<svg version="1.0" xmlns="http://www.w3.org/2000/svg"
 width="280.000000pt" height="280.000000pt" viewBox="0 0 280.000000 280.000000"
 preserveAspectRatio="xMidYMid meet">
<metadata>
Created by potrace 1.11, written by Peter Selinger 2001-2013
</metadata>
<g transform="translate(0.000000,280.000000) scale(0.100000,-0.100000)"
fill="#000000" stroke="none">
<path d="M0 1400 l0 -1400 1400 0 1400 0 0 1400 0 1400 -1400 0 -1400 0 0
-1400z m1286 1335 c53 -53 124 -241 145 -385 11 -79 13 -83 28 -64 32 39 92
76 152 95 83 26 125 25 143 -3 22 -34 37 -103 39 -174 1 -35 4 -63 7 -61 3 1
28 14 55 28 90 47 204 65 233 36 31 -32 7 -170 -43 -236 l-25 -35 50 -49 c63
-62 103 -120 141 -203 114 -251 92 -591 -52 -801 -18 -26 -92 -109 -164 -183
-151 -157 -248 -275 -368 -450 -48 -69 -101 -135 -119 -147 -80 -54 -189 -52
-303 3 -70 34 -251 219 -344 349 -241 341 -355 655 -353 975 1 211 57 364 173
475 53 51 58 59 46 74 -26 29 -45 75 -57 138 -11 55 -10 66 4 88 13 20 25 25
55 25 47 0 154 -32 199 -60 l32 -20 0 41 c0 22 7 71 16 110 21 95 38 106 128
85 85 -20 120 -38 175 -90 l43 -41 -6 55 c-12 97 -37 183 -82 279 -50 106 -54
133 -22 155 31 22 45 20 74 -9z"/>
<path d="M1086 2254 c-11 -30 -6 -125 9 -161 14 -34 17 -35 53 -29 20 3 56 6
79 6 41 0 41 1 34 28 -14 49 -51 111 -74 126 -12 8 -38 22 -59 30 -32 14 -37
14 -42 0z"/>
<path d="M1593 2245 c-47 -28 -77 -71 -97 -138 l-13 -45 51 -6 c95 -11 101
-10 119 32 23 56 29 89 21 138 -7 52 -20 55 -81 19z"/>
<path d="M800 2087 c0 -7 10 -25 23 -41 20 -25 27 -28 57 -21 l34 8 -29 23
c-39 31 -85 48 -85 31z"/>
<path d="M1920 2074 c-19 -8 -45 -25 -58 -36 l-22 -22 32 -11 c38 -13 59 -1
84 47 23 44 19 46 -36 22z"/>
<path d="M1125 1943 c-215 -25 -272 -44 -348 -113 -104 -95 -150 -223 -150
-415 1 -193 51 -390 150 -593 102 -208 332 -512 446 -589 52 -35 131 -56 177
-47 41 9 62 32 157 170 102 149 205 273 374 449 111 116 137 150 170 219 54
113 72 204 66 341 -6 137 -40 248 -108 350 -104 155 -183 187 -558 225 -96 9
-309 11 -376 3z m-32 -134 c25 -35 13 -58 -56 -102 -83 -54 -133 -123 -158
-221 -15 -59 -47 -85 -85 -67 -13 6 -28 21 -33 33 -11 30 17 131 54 194 54 93
186 199 239 192 10 -2 28 -15 39 -29z m372 -43 c22 -34 11 -121 -19 -141 -29
-21 -43 -19 -72 10 -22 22 -24 31 -18 73 3 26 13 55 22 65 22 25 68 22 87 -7z
m517 -167 c22 -42 23 -102 3 -119 -19 -16 -61 -16 -79 -1 -18 15 -40 104 -32
129 8 24 45 41 71 32 11 -4 28 -22 37 -41z m-300 -236 c35 -31 12 -133 -36
-154 -36 -17 -76 10 -76 52 0 34 25 100 43 111 20 13 49 9 69 -9z m-489 -10
c19 -22 31 -84 23 -116 -7 -30 -50 -51 -76 -37 -28 15 -40 43 -42 96 -2 35 2
49 17 60 26 19 59 18 78 -3z m-321 -165 c17 -15 48 -89 48 -117 0 -27 -34 -53
-67 -49 -49 5 -95 124 -63 163 15 18 60 20 82 3z m1042 -160 c23 -33 20 -50
-20 -96 -42 -49 -83 -57 -108 -20 -23 33 -20 50 20 96 42 49 83 57 108 20z
m-489 -32 c20 -20 23 -30 18 -67 -7 -61 -27 -89 -62 -89 -46 0 -65 30 -58 92
10 82 55 110 102 64z m-332 -308 c24 -19 46 -79 37 -103 -28 -74 -109 -47
-126 41 -10 54 47 93 89 62z m383 -173 c19 -29 14 -60 -17 -98 -45 -59 -124
-15 -100 55 25 70 85 92 117 43z"/>
</g>
</svg>
